<?xml version="1.0" encoding="UTF-8" standalone="no"?>
<!-- Generator: Adobe Illustrator 17.0.0, SVG Export Plug-In . SVG Version: 6.00 Build 0)  -->

<svg
   xmlns:dc="http://purl.org/dc/elements/1.1/"
   xmlns:cc="http://creativecommons.org/ns#"
   xmlns:rdf="http://www.w3.org/1999/02/22-rdf-syntax-ns#"
   xmlns:svg="http://www.w3.org/2000/svg"
   xmlns="http://www.w3.org/2000/svg"
   xmlns:sodipodi="http://sodipodi.sourceforge.net/DTD/sodipodi-0.dtd"
   xmlns:inkscape="http://www.inkscape.org/namespaces/inkscape"
   version="1.1"
   id="Layer_1"
   x="0px"
   y="0px"
   width="138.52901"
   height="185.955"
   viewBox="0 0 138.52901 185.955"
   enable-background="new 0 0 360 240"
   xml:space="preserve"
   sodipodi:docname="nait-logo.svg"
   inkscape:version="0.92.3 (2405546, 2018-03-11)"><metadata
   id="metadata3813"><rdf:RDF><cc:Work
       rdf:about=""><dc:format>image/svg+xml</dc:format><dc:type
         rdf:resource="http://purl.org/dc/dcmitype/StillImage" /><dc:title></dc:title></cc:Work></rdf:RDF></metadata><defs
   id="defs3811" /><sodipodi:namedview
   pagecolor="#ffffff"
   bordercolor="#666666"
   borderopacity="1"
   objecttolerance="10"
   gridtolerance="10"
   guidetolerance="10"
   inkscape:pageopacity="0"
   inkscape:pageshadow="2"
   inkscape:window-width="3200"
   inkscape:window-height="1695"
   id="namedview3809"
   showgrid="false"
   fit-margin-top="0"
   fit-margin-left="0"
   fit-margin-right="0"
   fit-margin-bottom="0"
   inkscape:zoom="5.9083333"
   inkscape:cx="67.529"
   inkscape:cy="93.029"
   inkscape:window-x="-13"
   inkscape:window-y="-13"
   inkscape:window-maximized="1"
   inkscape:current-layer="Layer_1" />
<path
   d="M 138.529,0 H 0 v 102.844 c 0,40.051 23.429,68.631 67.752,82.658 0.024,0 1.485,0.453 1.485,0.453 l 1.527,-0.453 c 44.339,-14.019 67.765,-42.602 67.765,-82.658 z m -69.011,181.507 -0.282,0.065 -0.22,-0.065 C 26.594,168.092 4.183,140.884 4.251,102.844 V 4.181 H 134.35 l 0.005,98.663 c 0,38.048 -22.413,65.248 -64.837,78.663 z"
   id="path3764"
   inkscape:connector-curvature="0"
   style="fill:#1e4b8a" />
<path
   d="m 4.251,4.181 v 98.663 c -0.068,38.04 22.343,65.248 64.765,78.663 l 0.22,0.065 0.282,-0.065 c 42.424,-13.415 64.837,-40.614 64.837,-78.663 L 134.35,4.181 Z m 125.912,97.457 c 0,36.461 -20.605,62.479 -59.611,75.243 l -1.316,0.459 c 0,0 -1.309,-0.459 -1.333,-0.459 C 28.915,164.11 8.307,138.093 8.307,101.638 V 8.35 h 121.856 z"
   id="path3766"
   inkscape:connector-curvature="0"
   style="fill:#ffffff" />
<polygon
   points="214.654,120.116 214.657,120.104 214.647,120.11 "
   id="polygon3768"
   style="fill:#3f9bd9"
   transform="translate(-112.471,-27.074)" />
<path
   d="m 54.722,65.483 -0.011,0.019 c 0.005,0.001 0.01,0.003 0.014,0.004 z"
   id="path3770"
   inkscape:connector-curvature="0"
   style="fill:#3f9bd9" />
<path
   d="m 42.431,162.02 0.014,-0.007 c -0.007,-0.005 -0.014,-0.01 -0.021,-0.014 z"
   id="path3772"
   inkscape:connector-curvature="0"
   style="fill:#3f9bd9" />
<path
   d="M 102.176,93.036 C 89.304,79.974 72.987,70.209 54.725,65.506 l 6.769,50.912 z"
   id="path3774"
   inkscape:connector-curvature="0"
   style="fill:#3f9bd9" />
<path
   d="M 32.879,132.864 61.494,116.418 54.725,65.506 C 54.72,65.505 54.716,65.503 54.711,65.502 l -28.516,46.956 z"
   id="path3776"
   inkscape:connector-curvature="0"
   style="fill:#7ab1e2" />
<path
   d="m 54.711,65.502 c -3.746,-0.964 -7.569,-1.728 -11.467,-2.25 -11.385,-1.52 -22.403,-0.96 -32.712,1.387 v 0.007 l 15.663,47.812 z"
   id="path3778"
   inkscape:connector-curvature="0"
   style="fill:#3f9bd9" />
<polygon
   points="214.654,120.116 214.647,120.11 173.965,143.491 178.637,178.629 198.233,169.99 "
   id="polygon3780"
   style="fill:#7ab1e2"
   transform="translate(-112.471,-27.074)" />
<path
   d="m 124.186,125.975 c 0.002,-0.003 0.003,-0.006 0.003,-0.008 -5.146,-12.247 -12.672,-23.45 -22.006,-32.925 l -16.422,49.874 z"
   id="path3782"
   inkscape:connector-curvature="0"
   style="fill:#3f9bd9" />
<path
   d="m 42.445,162.013 c 7.565,5.068 16.424,9.295 26.564,12.608 l 0.23,0.077 h 0.003 l -3.077,-23.143 z"
   id="path3784"
   inkscape:connector-curvature="0"
   style="fill:#b7d2ef" />
<path
   d="m 66.166,151.555 3.077,23.143 0.223,-0.077 c 2.279,-0.745 4.488,-1.54 6.639,-2.377 l 9.657,-29.329 z"
   id="path3786"
   inkscape:connector-curvature="0"
   style="fill:#9dc3e9" />
<path
   d="m 124.186,125.975 -38.425,16.941 -9.657,29.329 c 24.924,-9.682 41.194,-25.401 48.082,-46.27 z"
   id="path3788"
   inkscape:connector-curvature="0"
   style="fill:#7ab1e2" />
<path
   d="m 26.194,112.458 -10.509,17.306 c 1.399,3.521 3.077,6.886 5.038,10.087 l 12.157,-6.986 z"
   id="path3790"
   inkscape:connector-curvature="0"
   style="fill:#9dc3e9" />
<path
   d="m 61.494,116.417 -28.615,16.446 9.545,29.136 c 0.007,0.003 0.014,0.008 0.021,0.014 l 23.721,-10.458 z"
   id="path3792"
   inkscape:connector-curvature="0"
   style="fill:#9dc3e9" />
<path
   d="m 10.531,64.646 v 36.658 c 0,10.377 1.745,19.882 5.154,28.459 l 10.509,-17.306 z"
   id="path3794"
   inkscape:connector-curvature="0"
   style="fill:#7ab1e2" />
<path
   d="m 20.722,139.85 c 5.254,8.579 12.515,15.991 21.701,22.15 l -9.545,-29.136 z"
   id="path3796"
   inkscape:connector-curvature="0"
   style="fill:#b7d2ef" />
<path
   d="m 8.307,8.35 v 93.289 c 0,36.456 20.608,62.472 59.596,75.243 0.024,0 1.333,0.459 1.333,0.459 l 1.316,-0.459 c 39.006,-12.765 59.611,-38.782 59.611,-75.243 V 8.35 Z m 61.158,166.271 -0.226,0.077 -0.23,-0.077 C 30.749,162.115 10.531,136.762 10.531,101.303 V 64.639 c 10.309,-2.347 21.328,-2.907 32.712,-1.387 36.69,4.91 67.247,30.111 80.946,62.714 -7.48,22.676 -26.027,39.277 -54.724,48.655 z"
   id="path3798"
   inkscape:connector-curvature="0"
   style="fill:#1e4b8a" />
<path
   d="m 80.996,18.678 c 0.009,0.589 0.42,0.735 1.076,0.907 2.318,0.529 2.553,1.385 2.553,3.218 v 0.265 19.423 0.272 c 0,1.824 -0.235,2.687 -2.553,3.22 -0.655,0.172 -1.067,0.315 -1.076,0.897 v 0.992 h 3.254 4.858 3.252 V 46.88 C 92.358,46.291 91.935,46.155 91.29,45.983 88.971,45.45 88.731,44.588 88.731,42.763 V 42.491 23.068 22.803 c 0,-1.833 0.24,-2.689 2.559,-3.218 0.645,-0.172 1.069,-0.308 1.07,-0.907 v -0.99 H 89.108 84.25 80.996 Z"
   id="path3800"
   inkscape:connector-curvature="0"
   style="fill:#ffffff" />
<path
   d="m 23.645,23.846 v 18.899 c 0,1.834 0.204,2.69 2.362,3.223 0.601,0.16 0.984,0.306 0.992,0.904 v 0.987 h -9.354 v -0.987 c 0.012,-0.597 0.398,-0.744 1.001,-0.904 2.154,-0.533 2.365,-1.389 2.365,-3.223 V 22.803 c 0,-1.833 -0.211,-2.689 -2.365,-3.23 -0.602,-0.16 -0.989,-0.306 -1.001,-0.895 v -0.99 h 5.697 c 1.139,0.024 1.356,0.395 1.897,1.062 0,0 16.627,20.616 16.707,20.713 0.015,-0.123 0,-16.66 0,-16.66 0,-1.833 -0.197,-2.689 -2.355,-3.23 -0.608,-0.16 -0.994,-0.306 -1.002,-0.895 v -0.99 h 9.4 v 0.99 c -0.003,0.589 -0.397,0.735 -0.999,0.895 -2.146,0.541 -2.365,1.397 -2.365,3.23 v 25.056 h -0.516 c -0.781,0 -1.227,-0.594 -1.823,-1.367 z"
   id="path3802"
   inkscape:connector-curvature="0"
   style="fill:#ffffff" />
<path
   d="m 77.567,45.983 c -1.443,-0.306 -2.182,-1.404 -2.997,-3.164 0,0 -10.226,-25.658 -10.253,-25.706 l -1.167,0.08 c -0.485,0.065 -0.97,0.099 -1.639,1.429 -0.012,0.015 -9.579,24.214 -9.579,24.214 -0.824,1.751 -2.367,2.84 -3.82,3.147 -0.652,0.121 -1.072,0.299 -1.072,0.897 v 0.978 h 3.068 4.753 3.22 V 46.88 c -0.002,-0.597 -0.733,-0.679 -1.366,-0.897 -2.296,-0.815 -2.03,-2.01 -1.651,-3.228 0,0 2.049,-4.962 2.115,-5.119 h 10.719 c 0.068,0.17 2.209,5.143 2.209,5.143 0.39,1.212 1.213,2.389 -1.086,3.204 -0.626,0.218 -1.367,0.299 -1.367,0.897 v 0.978 h 3.225 5.549 2.221 V 46.88 C 78.644,46.283 78.22,46.104 77.567,45.983 Z M 58.081,35.259 c 0.221,-0.541 4.666,-10.988 4.68,-10.988 0,0 4.023,10.428 4.263,10.988 z"
   id="path3804"
   inkscape:connector-curvature="0"
   style="fill:#ffffff" />
<path
   d="m 94.853,17.687 v 7.2 h 0.817 c 0.556,-0.01 0.732,-0.398 0.939,-1.074 0.684,-2.406 1.7,-3.085 3.415,-3.046 h 5.525 l 0.009,21.978 c 0,1.834 -0.655,2.69 -2.963,3.223 -0.647,0.16 -1.062,0.306 -1.076,0.904 v 0.987 h 3.247 5.903 3.266 v -0.987 c -0.012,-0.597 -0.43,-0.744 -1.074,-0.904 -2.319,-0.533 -2.969,-1.389 -2.969,-3.223 l 0.007,-21.978 h 5.52 c 1.715,-0.039 2.728,0.64 3.415,3.046 0.209,0.676 0.381,1.064 0.944,1.074 h 0.88 v -7.2 z"
   id="path3806"
   inkscape:connector-curvature="0"
   style="fill:#ffffff" />
</svg>